<svg xmlns="http://www.w3.org/2000/svg" xmlns:xlink="http://www.w3.org/1999/xlink" version="1.1" width="512" height="512" viewBox="0 0 512 512">
  <title>Hyperform logo</title>
  <defs>
    <linearGradient id="linearGradient4279" x1="0.065" y1="0" x2="0" y2="0.96">
      <stop stop-color="#ed2626" offset="0" />
      <stop stop-color="#ef3b2e" offset="0.125" />
      <stop stop-color="#f04632" offset="0.125" />
      <stop stop-color="#f15137" offset="0.25" />
      <stop stop-color="#f25b3b" offset="0.25" />
      <stop stop-color="#f3663f" offset="0.375" />
      <stop stop-color="#f47143" offset="0.375" />
      <stop stop-color="#f67c48" offset="0.5" />
      <stop stop-color="#f7864c" offset="0.5" />
      <stop stop-color="#f89150" offset="0.625" />
      <stop stop-color="#f99c54" offset="0.625" />
      <stop stop-color="#faa759" offset="0.75" />
      <stop stop-color="#fbb25d" offset="0.75" />
      <stop stop-color="#fcbd61" offset="0.875" />
      <stop stop-color="#fdc865" offset="0.875" />
      <stop stop-color="#ffd36a" offset="1" />
    </linearGradient>
  </defs>
  <path fill="#57355d" fill-opacity="0.80" d="M 247.70983,156.50954 C 176.67537,242.95021 105.63947,329.39185 34.603614,415.8322 c 25.884569,0.20816 51.769119,0.41958 77.653686,0.62854 28.26851,-36.34784 56.5385,-72.69453 84.80757,-109.04193 50.19327,0.44549 100.38653,0.891 150.57979,1.33649 -23.89787,36.34635 -47.79772,72.6914 -71.69436,109.03856 25.49145,0.20644 50.98289,0.41367 76.47432,0.62178 C 405.61709,331.76397 458.80945,245.11222 512,158.45938 c -21.69991,-0.21304 -43.39981,-0.4261 -65.09973,-0.637 -19.06377,28.98808 -38.12458,57.9781 -57.18721,86.96693 -47.6346,-0.43987 -95.2692,-0.87974 -142.9038,-1.3196 22.54299,-28.98338 45.08637,-57.96646 67.62912,-86.95003 -22.06714,-0.21548 -44.13427,-0.432 -66.20138,-0.64882 l -0.52717,0.63868 z" />
  <path fill="#9d0000" d="m 278.6969,95.71475 c -17.45967,14.17068 -38.92719,25.95904 -54.52246,42.25915 -74.22469,71.25238 -148.449351,142.50477 -222.6740488,213.75714 9.6979858,9.83921 19.3943508,19.68003 29.0903518,29.5212 24.91529,0.2001 49.830549,0.40384 74.745837,0.60489 28.2685,-36.34784 56.5385,-72.69453 84.80757,-109.04194 l 148.98647,1.32299 c -32.27423,26.47417 -64.54803,52.94887 -96.82253,79.42272 9.72688,9.88407 19.45608,19.76586 29.18328,29.64962 24.67086,0.19916 49.34169,0.40024 74.01253,0.60151 52.89838,-86.173 105.79738,-172.34563 158.69339,-258.52009 -10.10355,-10.02274 -17.17298,-19.11305 -27.27532,-29.13702 -30.33374,38.32106 -63.6999,75.70946 -94.03332,114.03078 l -143.00012,-1.3196 c 22.13757,-28.46179 44.27485,-56.92379 66.41259,-85.38544 -9.83926,-10.03814 -16.54419,-18.70019 -26.38262,-28.73914 l -0.67661,0.53905 z" />
  <path fill="#ffffff" d="M 213.10622,94.22304 C 142.07176,180.6637 71.035858,267.10535 1.4919097e-7,353.54569 25.884572,353.75386 51.76912,353.96528 77.653687,354.17424 105.92219,317.8264 134.19218,281.4797 162.46126,245.1323 c 50.19327,0.4455 100.38653,0.891 150.57979,1.3365 -23.89787,36.34634 -47.79772,72.69139 -71.69436,109.03855 25.49145,0.20645 50.98288,0.41367 76.47432,0.62179 53.19247,-86.65167 106.38482,-173.30342 159.57538,-259.95627 -21.69991,-0.21303 -43.39981,-0.4261 -65.09974,-0.63699 -19.06376,28.98808 -38.12457,57.9781 -57.1872,86.96693 -47.6346,-0.43988 -95.2692,-0.87974 -142.90381,-1.3196 22.54299,-28.98338 45.08637,-57.96646 67.62912,-86.95003 -22.06714,-0.21548 -44.13426,-0.432 -66.20137,-0.64882 l -0.52717,0.63868 z" />
  <path fill="url(#linearGradient4279)" d="m 415.07933,100.75144 c 0,0 -57.18729,86.96621 -57.18729,86.96621 0,0 -156.22585,-1.44046 -156.22585,-1.44046 0,0 67.63413,-86.95495 67.63413,-86.95495 0,0 -53.23702,-0.52193 -53.23702,-0.52193 0,0 -205.150004,249.64035 -205.150004,249.64035 0,0 64.215002,0.52208 64.215002,0.52208 0,0 84.812652,-109.0408 84.812652,-109.0408 0,0 162.67473,1.44141 162.67473,1.44141 0,0 -71.69509,109.02859 -71.69509,109.02859 0,0 64.01018,0.52041 64.01018,0.52041 0,0 153.24457,-249.64036 153.24457,-249.64036 0,0 -53.09601,-0.52055 -53.09601,-0.52055 0,0 0,0 0,0" />
</svg>
